{
  "asset": {
    "version": "2.0",
    "generator": "THREE.GLTFExporter"
  },
  "scenes": [
    {
      "nodes": [
        6
      ],
      "name": "AuxScene"
    }
  ],
  "scene": 0,
  "nodes": [
    {
      "name": "Plane004",
      "mesh": 0
    },
    {
      "name": "Plane003",
      "mesh": 1
    },
    {
      "name": "Plane005",
      "mesh": 2
    },
    {
      "name": "Plane0011111",
      "mesh": 3
    },
    {
      "name": "Plane001",
      "mesh": 4
    },
    {
      "name": "Plane002",
      "mesh": 5
    },
    {
      "matrix": [
        0.01,
        0,
        0,
        0,
        0,
        0.01,
        0,
        0,
        0,
        0,
        0.01,
        0,
        0,
        0,
        0,
        1
      ],
      "name": "root",
      "children": [
        0,
        1,
        2,
        3,
        4,
        5
      ]
    }
  ],
  "bufferViews": [
    {
      "buffer": 0,
      "byteOffset": 0,
      "byteLength": 720,
      "target": 34962,
      "byteStride": 12
    },
    {
      "buffer": 0,
      "byteOffset": 720,
      "byteLength": 720,
      "target": 34962,
      "byteStride": 12
    },
    {
      "buffer": 0,
      "byteOffset": 1440,
      "byteLength": 480,
      "target": 34962,
      "byteStride": 8
    },
    {
      "buffer": 0,
      "byteOffset": 1920,
      "byteLength": 120,
      "target": 34963
    },
    {
      "buffer": 0,
      "byteOffset": 2040,
      "byteLength": 35064,
      "target": 34962,
      "byteStride": 12
    },
    {
      "buffer": 0,
      "byteOffset": 37104,
      "byteLength": 35064,
      "target": 34962,
      "byteStride": 12
    },
    {
      "buffer": 0,
      "byteOffset": 72168,
      "byteLength": 23376,
      "target": 34962,
      "byteStride": 8
    },
    {
      "buffer": 0,
      "byteOffset": 95544,
      "byteLength": 5844,
      "target": 34963
    },
    {
      "buffer": 0,
      "byteOffset": 101388,
      "byteLength": 720,
      "target": 34962,
      "byteStride": 12
    },
    {
      "buffer": 0,
      "byteOffset": 102108,
      "byteLength": 720,
      "target": 34962,
      "byteStride": 12
    },
    {
      "buffer": 0,
      "byteOffset": 102828,
      "byteLength": 480,
      "target": 34962,
      "byteStride": 8
    },
    {
      "buffer": 0,
      "byteOffset": 103308,
      "byteLength": 120,
      "target": 34963
    },
    {
      "buffer": 0,
      "byteOffset": 103428,
      "byteLength": 1080,
      "target": 34962,
      "byteStride": 12
    },
    {
      "buffer": 0,
      "byteOffset": 104508,
      "byteLength": 1080,
      "target": 34962,
      "byteStride": 12
    },
    {
      "buffer": 0,
      "byteOffset": 105588,
      "byteLength": 720,
      "target": 34962,
      "byteStride": 8
    },
    {
      "buffer": 0,
      "byteOffset": 106308,
      "byteLength": 180,
      "target": 34963
    },
    {
      "buffer": 0,
      "byteOffset": 106488,
      "byteLength": 10944,
      "target": 34962,
      "byteStride": 12
    },
    {
      "buffer": 0,
      "byteOffset": 117432,
      "byteLength": 10944,
      "target": 34962,
      "byteStride": 12
    },
    {
      "buffer": 0,
      "byteOffset": 128376,
      "byteLength": 7296,
      "target": 34962,
      "byteStride": 8
    },
    {
      "buffer": 0,
      "byteOffset": 135672,
      "byteLength": 1824,
      "target": 34963
    },
    {
      "buffer": 0,
      "byteOffset": 137496,
      "byteLength": 1800,
      "target": 34962,
      "byteStride": 12
    },
    {
      "buffer": 0,
      "byteOffset": 139296,
      "byteLength": 1800,
      "target": 34962,
      "byteStride": 12
    },
    {
      "buffer": 0,
      "byteOffset": 141096,
      "byteLength": 1200,
      "target": 34962,
      "byteStride": 8
    },
    {
      "buffer": 0,
      "byteOffset": 142296,
      "byteLength": 300,
      "target": 34963
    }
  ],
  "buffers": [
    {
      "byteLength": 142596,
      "uri": "data:application/octet-stream;base64,"
    }
  ],
  "accessors": [
    {
      "bufferView": 0,
      "componentType": 5126,
      "count": 60,
      "max": [
        0.43751800060272217,
        -0.21766099333763123,
        -0.14888499677181244
      ],
      "min": [
        -0.4373930096626282,
        -0.8305690288543701,
        -0.737945020198822
      ],
      "type": "VEC3"
    },
    {
      "bufferView": 1,
      "componentType": 5126,
      "count": 60,
      "max": [
        0.9738749861717224,
        -0.0022864399943500757,
        -0.22688999772071838
      ],
      "min": [
        -0.9739130139350891,
        -0.8794540166854858,
        -0.9469509720802307
      ],
      "type": "VEC3"
    },
    {
      "bufferView": 2,
      "componentType": 5126,
      "count": 60,
      "max": [
        0.9179689884185791,
        0.5717340111732483
      ],
      "min": [
        0.7090700268745422,
        0.15810100734233856
      ],
      "type": "VEC2"
    },
    {
      "bufferView": 3,
      "componentType": 5123,
      "count": 60,
      "max": [
        59
      ],
      "min": [
        0
      ],
      "type": "SCALAR"
    },
    {
      "bufferView": 4,
      "componentType": 5126,
      "count": 2922,
      "max": [
        0.977778971195221,
        0.9421250224113464,
        0.8211740255355835
      ],
      "min": [
        -0.9794909954071045,
        -0.9088929891586304,
        -0.30344998836517334
      ],
      "type": "VEC3"
    },
    {
      "bufferView": 5,
      "componentType": 5126,
      "count": 2922,
      "max": [
        1,
        0.9999989867210388,
        0.9999930262565613
      ],
      "min": [
        -1,
        -0.9999989867210388,
        -0.9996070265769958
      ],
      "type": "VEC3"
    },
    {
      "bufferView": 6,
      "componentType": 5126,
      "count": 2922,
      "max": [
        0.9889990091323853,
        0.9906740188598633
      ],
      "min": [
        0.015790000557899475,
        0.0690860003232956
      ],
      "type": "VEC2"
    },
    {
      "bufferView": 7,
      "componentType": 5123,
      "count": 2922,
      "max": [
        2921
      ],
      "min": [
        0
      ],
      "type": "SCALAR"
    },
    {
      "bufferView": 8,
      "componentType": 5126,
      "count": 60,
      "max": [
        0.8279110193252563,
        -0.8827189803123474,
        0.1880120038986206
      ],
      "min": [
        -0.8294190168380737,
        -0.9969329833984375,
        -0.13663500547409058
      ],
      "type": "VEC3"
    },
    {
      "bufferView": 9,
      "componentType": 5126,
      "count": 60,
      "max": [
        0.99993497133255,
        -0.0019066500244662166,
        -0.0013740600552409887
      ],
      "min": [
        -0.9999390244483948,
        -0.9908909797668457,
        -0.9239640235900879
      ],
      "type": "VEC3"
    },
    {
      "bufferView": 10,
      "componentType": 5126,
      "count": 60,
      "max": [
        0.9299920201301575,
        0.13237200677394867
      ],
      "min": [
        0.5892980098724365,
        0.05209600180387497
      ],
      "type": "VEC2"
    },
    {
      "bufferView": 11,
      "componentType": 5123,
      "count": 60,
      "max": [
        59
      ],
      "min": [
        0
      ],
      "type": "SCALAR"
    },
    {
      "bufferView": 12,
      "componentType": 5126,
      "count": 90,
      "max": [
        0.7384799718856812,
        0.7593039870262146,
        -0.14888499677181244
      ],
      "min": [
        -0.7399880290031433,
        -0.7895230054855347,
        -0.819616973400116
      ],
      "type": "VEC3"
    },
    {
      "bufferView": 13,
      "componentType": 5126,
      "count": 90,
      "max": [
        0.8886250257492065,
        0.8724390268325806,
        -0.263372004032135
      ],
      "min": [
        -0.8881139755249023,
        -0.7363049983978271,
        -0.9348899722099304
      ],
      "type": "VEC3"
    },
    {
      "bufferView": 14,
      "componentType": 5126,
      "count": 90,
      "max": [
        0.5843369960784912,
        0.9893090128898621
      ],
      "min": [
        0.005098000168800354,
        0.00786800030618906
      ],
      "type": "VEC2"
    },
    {
      "bufferView": 15,
      "componentType": 5123,
      "count": 90,
      "max": [
        89
      ],
      "min": [
        0
      ],
      "type": "SCALAR"
    },
    {
      "bufferView": 16,
      "componentType": 5126,
      "count": 912,
      "max": [
        0.889369010925293,
        -0.8827189803123474,
        0.7713540196418762
      ],
      "min": [
        -0.8908770084381104,
        -1.0001100301742554,
        0.1775989979505539
      ],
      "type": "VEC3"
    },
    {
      "bufferView": 17,
      "componentType": 5126,
      "count": 912,
      "max": [
        0.9237099885940552,
        0.9501680135726929,
        0.9999880194664001
      ],
      "min": [
        -0.9238229990005493,
        -1,
        -0.9999989867210388
      ],
      "type": "VEC3"
    },
    {
      "bufferView": 18,
      "componentType": 5126,
      "count": 912,
      "max": [
        0.9267740249633789,
        0.6342800259590149
      ],
      "min": [
        0.2784389853477478,
        0.02353299967944622
      ],
      "type": "VEC2"
    },
    {
      "bufferView": 19,
      "componentType": 5123,
      "count": 912,
      "max": [
        911
      ],
      "min": [
        0
      ],
      "type": "SCALAR"
    },
    {
      "bufferView": 20,
      "componentType": 5126,
      "count": 150,
      "max": [
        0.8228060007095337,
        0.7795289754867554,
        0.7954480051994324
      ],
      "min": [
        -0.822068989276886,
        -0.6417989730834961,
        0.7376649975776672
      ],
      "type": "VEC3"
    },
    {
      "bufferView": 21,
      "componentType": 5126,
      "count": 150,
      "max": [
        0.07934729754924774,
        0.1190819963812828,
        0.9991260170936584
      ],
      "min": [
        -0.07248000055551529,
        -0.11429300159215927,
        0.992874026298523
      ],
      "type": "VEC3"
    },
    {
      "bufferView": 22,
      "componentType": 5126,
      "count": 150,
      "max": [
        0.5901719927787781,
        0.9484270215034485
      ],
      "min": [
        0.31104400753974915,
        0.6996930241584778
      ],
      "type": "VEC2"
    },
    {
      "bufferView": 23,
      "componentType": 5123,
      "count": 150,
      "max": [
        149
      ],
      "min": [
        0
      ],
      "type": "SCALAR"
    }
  ],
  "materials": [
    {
      "pbrMetallicRoughness": {
        "metallicFactor": 0.5,
        "roughnessFactor": 0.5
      },
      "name": "DefaultMaterial"
    }
  ],
  "meshes": [
    {
      "primitives": [
        {
          "mode": 4,
          "attributes": {
            "POSITION": 0,
            "NORMAL": 1,
            "TEXCOORD_0": 2
          },
          "indices": 3,
          "material": 0
        }
      ]
    },
    {
      "primitives": [
        {
          "mode": 4,
          "attributes": {
            "POSITION": 4,
            "NORMAL": 5,
            "TEXCOORD_0": 6
          },
          "indices": 7,
          "material": 0
        }
      ]
    },
    {
      "primitives": [
        {
          "mode": 4,
          "attributes": {
            "POSITION": 8,
            "NORMAL": 9,
            "TEXCOORD_0": 10
          },
          "indices": 11,
          "material": 0
        }
      ]
    },
    {
      "primitives": [
        {
          "mode": 4,
          "attributes": {
            "POSITION": 12,
            "NORMAL": 13,
            "TEXCOORD_0": 14
          },
          "indices": 15,
          "material": 0
        }
      ]
    },
    {
      "primitives": [
        {
          "mode": 4,
          "attributes": {
            "POSITION": 16,
            "NORMAL": 17,
            "TEXCOORD_0": 18
          },
          "indices": 19,
          "material": 0
        }
      ]
    },
    {
      "primitives": [
        {
          "mode": 4,
          "attributes": {
            "POSITION": 20,
            "NORMAL": 21,
            "TEXCOORD_0": 22
          },
          "indices": 23,
          "material": 0
        }
      ]
    }
  ]
}